<?xml version="1.0" standalone="no"?>
<!DOCTYPE svg PUBLIC "-//W3C//DTD SVG 20010904//EN"
 "http://www.w3.org/TR/2001/REC-SVG-20010904/DTD/svg10.dtd">
<svg version="1.0" xmlns="http://www.w3.org/2000/svg"
 width="260.000000pt" height="260.000000pt" viewBox="0 0 260.000000 260.000000"
 preserveAspectRatio="xMidYMid meet">
<metadata>
Created by potrace 1.11, written by Peter Selinger 2001-2013
</metadata>
<g transform="translate(0.000000,260.000000) scale(0.100000,-0.100000)"
fill="#000000" stroke="none">
<path d="M571 2225 c-197 -55 -329 -227 -329 -429 0 -137 43 -229 165 -353
l82 -83 -87 -88 c-159 -158 -198 -232 -209 -392 -19 -282 224 -530 507 -519
145 6 240 54 385 195 l107 104 72 -74 c39 -40 94 -88 121 -105 305 -194 697
35 681 397 -5 99 -40 187 -109 272 -57 71 -188 137 -290 147 -144 13 -252 -32
-383 -159 l-92 -89 -157 155 -157 155 81 83 c123 125 160 198 166 328 6 115
-33 234 -103 315 -36 43 -124 104 -179 125 -75 29 -199 35 -272 15z m195 -151
c113 -46 169 -183 121 -295 -13 -31 -188 -219 -204 -219 -13 0 -182 178 -197
209 -39 75 -22 190 36 250 65 67 162 89 244 55z m74 -1064 c82 -83 150 -154
150 -158 0 -5 -61 -68 -135 -141 -156 -153 -196 -176 -284 -168 -92 8 -160 63
-192 155 -14 40 -5 121 18 166 16 31 271 296 285 296 4 0 75 -68 158 -150z
m951 47 c48 -20 104 -81 119 -129 42 -143 -39 -274 -184 -293 -81 -10 -132 14
-228 108 -127 125 -125 102 -12 212 76 74 109 99 144 109 53 16 112 14 161 -7z"/>
<path d="M2045 2208 c-7 -18 -79 -181 -160 -363 -81 -181 -149 -336 -152 -342
-3 -8 3 -13 15 -13 14 0 27 16 46 55 14 31 26 58 26 60 0 3 17 42 38 88 21 45
76 169 122 274 46 106 87 190 91 185 4 -4 21 -41 39 -82 38 -87 77 -176 90
-205 5 -11 37 -83 70 -160 34 -77 68 -157 77 -177 13 -28 23 -38 40 -38 19 0
22 3 14 18 -5 9 -44 96 -86 192 -42 96 -89 202 -104 235 -15 33 -51 115 -81
183 -30 67 -58 122 -62 122 -5 0 -15 -15 -23 -32z"/>
</g>
</svg>
