<svg xmlns="http://www.w3.org/2000/svg" fill="currentColor" viewBox="0 0 24 24">
  <path fill-rule="evenodd" d="M15.75 1.5a6.75 6.75 0 00-6.457 8.708L1.5 18v4.5H6l7.793-7.792A6.75 6.75 0 0022.5 8.805a6.578 6.578 0 00-1.238-4.5A6.75 6.75 0 0015.75 1.5zm2.25 9a1.5 1.5 0 100-3 1.5 1.5 0 000 3zm-3.75 2.775a5.25 5.25 0 001.5.225 5.25 5.25 0 004.433-2.43c.583-.888.869-1.939.817-3a5.25 5.25 0 00-7.68-4.5 5.355 5.355 0 00-2.55 6.33l.218.713-.638.637L3 18.623V21h2.378l1.657-1.657L6 18.308l1.058-1.058 1.034 1.035 1.193-1.192-1.035-1.035L9.307 15l1.058 1.035 2.385-2.385.637-.637.863.262z" clip-rule="evenodd"/>
</svg>
