<svg xmlns="http://www.w3.org/2000/svg" fill="currentColor" viewBox="0 0 24 24">
  <path fill-rule="evenodd" d="M20.25 12.57v-1.148l1.44-1.26a1.5 1.5 0 00.285-1.912l-1.77-3a1.5 1.5 0 00-1.297-.75 1.5 1.5 0 00-.48.075l-1.823.615a8.51 8.51 0 00-.982-.563l-.383-1.89a1.5 1.5 0 00-1.5-1.207h-3.51a1.5 1.5 0 00-1.5 1.207l-.382 1.89a8.61 8.61 0 00-.99.563l-1.785-.645a1.5 1.5 0 00-.48-.045 1.5 1.5 0 00-1.298.75l-1.77 3a1.5 1.5 0 00.308 1.883L3.75 11.43v1.148l-1.417 1.26a1.5 1.5 0 00-.308 1.912l1.77 3a1.5 1.5 0 001.298.75c.163.001.325-.024.48-.075l1.822-.615c.315.21.643.397.983.563l.382 1.89a1.5 1.5 0 001.5 1.207h3.54a1.5 1.5 0 001.5-1.207l.382-1.89c.343-.166.673-.354.99-.563l1.816.615a1.5 1.5 0 00.48.075 1.5 1.5 0 001.297-.75l1.71-3a1.5 1.5 0 00-.308-1.883L20.25 12.57zM7.5 12a4.5 4.5 0 004.5 4.5 4.455 4.455 0 004.5-4.5 4.5 4.5 0 10-9 0zm2.358-2.142A2.932 2.932 0 0112 9a2.933 2.933 0 013 3 2.932 2.932 0 01-3 3 2.933 2.933 0 01-3-3 2.932 2.932 0 01.858-2.142zm6.477 7.272l2.572.87 1.77-3-2.04-1.852a6.674 6.674 0 000-2.348l2.04-1.8-1.77-3-2.58.84a7.02 7.02 0 00-2.025-1.177L13.77 3h-3.54l-.533 2.693A6.645 6.645 0 007.665 6.87L5.092 6l-1.77 3 2.04 1.852a6.675 6.675 0 000 2.348L3.322 15l1.77 3 2.58-.84a7.02 7.02 0 002.025 1.177L10.23 21h3.54l.532-2.692a6.644 6.644 0 002.033-1.178z" clip-rule="evenodd"/>
</svg>
