<svg xmlns="http://www.w3.org/2000/svg" fill="currentColor" viewBox="0 0 24 24">
  <path fill-rule="evenodd" d="M1.5 12C1.5 6.201 6.201 1.5 12 1.5A10.5 10.5 0 0122.5 12c0 5.799-4.701 10.5-10.5 10.5S1.5 17.799 1.5 12zM12 5.25a3.75 3.75 0 100 7.5 3.75 3.75 0 000-7.5zm0 6a2.25 2.25 0 110-4.5 2.25 2.25 0 010 4.5zm-4.5 8.535v-1.5a2.415 2.415 0 012.25-2.535h4.5a2.415 2.415 0 012.25 2.543v1.5a8.94 8.94 0 01-9 0v-.008zM18 18.233v.442a9 9 0 10-12 0v-.442a3.9 3.9 0 013.75-3.983h4.5A3.907 3.907 0 0118 18.233z" clip-rule="evenodd"/>
</svg>
