<svg xmlns="http://www.w3.org/2000/svg" fill="currentColor" viewBox="0 0 24 24">
  <path fill-rule="evenodd" d="M12.75 6.75a3.75 3.75 0 10-7.5 0 3.75 3.75 0 007.5 0zm-9 0a5.25 5.25 0 1110.5 0 5.25 5.25 0 01-10.5 0zM15 22.5h1.5v-3.75c0-2.9-2.35-5.25-5.25-5.25h-4.5a5.25 5.25 0 00-5.25 5.25v3.75H3v-3.75A3.75 3.75 0 016.75 15h4.5A3.75 3.75 0 0115 18.75v3.75zm-.532-10.527l-.06-.027c.428-.445.801-.942 1.109-1.481a3.75 3.75 0 000-7.43 7.527 7.527 0 00-1.127-1.5 5.25 5.25 0 11.077 10.438zm5.434 4.125a3.75 3.75 0 00-2.135-1.062 7.529 7.529 0 00-1.16-1.536h.643c2.9 0 5.25 2.35 5.25 5.25v3.75H21v-3.75a3.75 3.75 0 00-1.098-2.652z" clip-rule="evenodd"/>
</svg>
