<svg xmlns="http://www.w3.org/2000/svg" fill="currentColor" viewBox="0 0 24 24">
  <path fill-rule="evenodd" clip-rule="evenodd" d="M0 9.29478C0 5.64678 3.774 2.30078 8.704 2.30078C12.774 2.30078 16.377 4.70078 17.101 8.16978C16.977 8.16478 16.853 8.16178 16.729 8.16178C11.281 8.16178 8.83 12.1268 8.83 14.9418C8.83 15.4398 8.907 15.9728 9.062 16.5138C8.845 16.5038 6.611 16.3968 5.559 16.0618L3.179 17.4108C2.941 17.5458 2.658 17.3278 2.728 17.0628L3.258 15.0558C3.258 15.0558 0 12.9428 0 9.29478ZM4.377 7.02978C4.377 7.62778 4.862 8.11178 5.459 8.11178C6.057 8.11178 6.541 7.62778 6.541 7.02978C6.541 6.43178 6.057 5.94778 5.459 5.94778C4.861 5.94778 4.377 6.43178 4.377 7.02978ZM10.666 7.02978C10.666 7.62778 11.151 8.11178 11.748 8.11178C12.346 8.11178 12.83 7.62778 12.83 7.02978C12.83 6.43178 12.345 5.94778 11.748 5.94778C11.15 5.94778 10.666 6.43178 10.666 7.02978ZM16.7307 8.96729C20.2527 8.96729 24.0007 11.3073 24.0007 14.5023C24.0007 16.4383 23.1587 18.3813 21.3897 19.6143L21.8147 21.4593C21.8537 21.6293 21.6667 21.7623 21.5187 21.6683L19.6457 20.4793C18.8027 20.7593 17.8327 20.9173 16.7307 20.9173C11.7497 20.9173 9.63672 17.3243 9.63672 14.9423C9.63672 12.5643 11.7497 8.96729 16.7307 8.96729ZM13.4967 12.9393C13.4967 13.4673 13.9247 13.8953 14.4527 13.8953C14.9807 13.8953 15.4087 13.4673 15.4087 12.9393C15.4087 12.4113 14.9807 11.9833 14.4527 11.9833C13.9247 11.9833 13.4967 12.4113 13.4967 12.9393ZM18.2767 12.9393C18.2767 13.4673 18.7047 13.8953 19.2327 13.8953C19.7607 13.8953 20.1887 13.4673 20.1887 12.9393C20.1887 12.4113 19.7607 11.9833 19.2327 11.9833C18.7047 11.9833 18.2767 12.4113 18.2767 12.9393Z" />
</svg>