<svg xmlns="http://www.w3.org/2000/svg" fill="currentColor" viewBox="0 0 24 24">
  <path fill-rule="evenodd" d="M12 1.5C6.201 1.5 1.5 6.201 1.5 12S6.201 22.5 12 22.5 22.5 17.799 22.5 12A10.5 10.5 0 0012 1.5zm9 9.75h-4.5a18.194 18.194 0 00-2.092-7.912A9 9 0 0121 11.25zM12 21a3.762 3.762 0 01-.502 0A16.388 16.388 0 019 12.75h6A16.387 16.387 0 0112.525 21 3.74 3.74 0 0112 21zm-3-9.75c.075-2.921.93-5.77 2.475-8.25a4.5 4.5 0 011.005 0A16.387 16.387 0 0115 11.25H9zm.57-7.912A18.195 18.195 0 007.5 11.25H3a9 9 0 016.592-7.912H9.57zM3.038 12.75h4.5c.078 2.76.783 5.466 2.062 7.913a9 9 0 01-6.562-7.913zm11.37 7.913A18.194 18.194 0 0016.5 12.75H21a9 9 0 01-6.592 7.913z" clip-rule="evenodd"/>
</svg>
