<svg width="100" height="24" viewBox="0 0 100 24" fill="none" xmlns="http://www.w3.org/2000/svg">
<g clip-path="url(#clip0)">
<path d="M97.59 0.0234375H97.473L95.1494 5.33934H95.4379L97.5276 0.535627L99.6016 5.33934H99.9057L97.59 0.0234375Z" fill="white"/>
<path d="M34.8973 8.56335L39.8179 0H37.6517L33.9613 6.42102L30.2668 0H28.1006L33.0173 8.54943V13.3091H34.8973V8.56335Z" fill="white"/>
<path d="M43.9591 0H42.0811V13.311H43.9591V0Z" fill="white"/>
<path d="M53.7099 10.1572L49.9181 3.4937V13.3091H48.0381V0H50.089L53.7099 6.35941L57.3309 0H59.4037V13.3091H57.5256V3.45594L53.7099 10.1572Z" fill="white"/>
<path d="M65.3966 0H63.5186V13.311H65.3966V0Z" fill="white"/>
<path d="M78.3763 13.311H80.3994L75.0594 0H73.0324L67.6924 13.311H69.7155L71.2418 9.50732H76.848L78.3763 13.311ZM71.9989 7.6293L74.0479 2.51992L76.0968 7.6293H71.9989Z" fill="white"/>
<path d="M92.8601 0H90.9821V9.87497L85.1453 0H83.1162V13.3091H84.9942V3.43408L90.8311 13.3091H92.8601V0Z" fill="white"/>
<path d="M50.5218 22.5808C50.6266 22.7312 50.7502 22.8619 50.8914 22.9749C51.0336 23.0869 51.1883 23.1792 51.3565 23.2518C51.5247 23.3244 51.7001 23.3794 51.8839 23.4167C52.0676 23.4541 52.2597 23.4727 52.459 23.4727C52.7061 23.4727 52.9356 23.4437 53.1484 23.3846C53.3612 23.3265 53.545 23.2404 53.6997 23.1253C53.8543 23.0112 53.9758 22.8712 54.062 22.7063C54.1492 22.5414 54.1918 22.3568 54.1918 22.1545C54.1918 21.9658 54.1627 21.805 54.1045 21.6702C54.0464 21.5354 53.9644 21.4234 53.8564 21.3342C53.7485 21.245 53.6208 21.1734 53.4744 21.1174C53.3269 21.0614 53.1536 21.0127 52.9542 20.9722L52.0884 20.7897C51.8891 20.7492 51.7105 20.6984 51.5527 20.6372C51.3949 20.576 51.2547 20.4972 51.1312 20.4008C51.0076 20.3043 50.9121 20.1819 50.8436 20.0347C50.7751 19.8874 50.7408 19.7121 50.7408 19.5088C50.7408 19.3056 50.7834 19.1189 50.8664 18.9488C50.9505 18.7787 51.0699 18.6325 51.2246 18.5101C51.3793 18.3877 51.5631 18.2954 51.7759 18.2321C51.9887 18.1689 52.2213 18.1367 52.4736 18.1367C52.6314 18.1367 52.7809 18.1471 52.9221 18.1668C53.0643 18.1875 53.1993 18.2218 53.328 18.2715C53.4567 18.3203 53.5792 18.3856 53.6945 18.4665C53.8097 18.5474 53.9146 18.6459 54.0101 18.7621L53.7661 19.0017C53.6872 18.9094 53.599 18.8306 53.5024 18.7642C53.4048 18.6978 53.3041 18.6439 53.1992 18.6045C53.0944 18.564 52.9812 18.5339 52.8608 18.5132C52.7404 18.4935 52.6137 18.4831 52.4829 18.4831C52.2888 18.4831 52.1092 18.507 51.943 18.5557C51.778 18.6045 51.6337 18.674 51.5101 18.7652C51.3866 18.8565 51.2911 18.9643 51.2225 19.0888C51.154 19.2133 51.1198 19.3522 51.1198 19.5037C51.1198 19.6509 51.1457 19.7775 51.1987 19.8843C51.2506 19.9911 51.3243 20.0813 51.4188 20.155C51.5132 20.2286 51.6264 20.2898 51.7572 20.3375C51.888 20.3862 52.0406 20.4277 52.214 20.463L53.0809 20.6383C53.2958 20.6839 53.492 20.7409 53.6675 20.8104C53.8429 20.8789 53.9997 20.9701 54.1367 21.0842C54.2727 21.1983 54.3807 21.3435 54.4596 21.5188C54.5385 21.6941 54.578 21.9036 54.578 22.1473C54.578 22.4014 54.5271 22.6327 54.4243 22.8411C54.3215 23.0496 54.1762 23.2259 53.9872 23.3711C53.7983 23.5153 53.574 23.6262 53.3135 23.703C53.0529 23.7797 52.7684 23.8171 52.459 23.8171C52.2337 23.8171 52.0147 23.7984 51.8008 23.76C51.588 23.7216 51.3866 23.6615 51.1945 23.5806C51.0024 23.4997 50.826 23.395 50.663 23.2653C50.5 23.1357 50.3588 22.9832 50.2373 22.8059L50.5218 22.5808Z" fill="white"/>
<path d="M56.2861 19.9007C56.4283 19.5501 56.6287 19.2431 56.8882 18.9776C57.1478 18.7121 57.454 18.5068 57.806 18.3595C58.1579 18.2122 58.5389 18.1396 58.948 18.1396C59.1369 18.1396 59.3196 18.1552 59.4951 18.1863C59.6706 18.2174 59.8377 18.2631 59.9955 18.3222C60.1533 18.3823 60.3028 18.457 60.445 18.5472C60.5862 18.6385 60.7181 18.7422 60.8385 18.8615L60.6101 19.1394C60.5053 19.0388 60.39 18.9476 60.2675 18.8667C60.144 18.7858 60.0132 18.7184 59.874 18.6655C59.7349 18.6126 59.5875 18.5721 59.4328 18.5441C59.2781 18.5161 59.1193 18.5016 58.9563 18.5016C58.6043 18.5016 58.2752 18.5649 57.9679 18.6914C57.6606 18.8179 57.3938 18.9963 57.1685 19.2276C56.9432 19.4578 56.7688 19.7244 56.6453 20.0262C56.5217 20.328 56.4605 20.6453 56.4605 20.9803C56.4605 21.3205 56.5228 21.642 56.6453 21.9459C56.7688 22.2498 56.9432 22.5163 57.1685 22.7445C57.3949 22.9727 57.6606 23.15 57.9679 23.2765C58.2752 23.4031 58.6043 23.4663 58.9563 23.4663C59.1193 23.4663 59.276 23.4539 59.4287 23.429C59.5813 23.4041 59.7277 23.3668 59.8699 23.3159C60.0121 23.2662 60.144 23.205 60.2675 23.1324C60.3911 23.0598 60.5053 22.9789 60.6101 22.8887L60.8385 23.1656C60.7181 23.2734 60.5862 23.3678 60.445 23.4508C60.3038 23.5327 60.1533 23.6012 59.9955 23.6551C59.8387 23.709 59.6716 23.7505 59.4951 23.7785C59.3186 23.8065 59.1369 23.821 58.948 23.821C58.5389 23.821 58.1579 23.7505 57.806 23.6095C57.454 23.4684 57.1478 23.2703 56.8882 23.0141C56.6287 22.7569 56.4273 22.4582 56.2861 22.116C56.1438 21.7737 56.0732 21.4066 56.0732 21.0146C56.0732 20.6225 56.1449 20.2512 56.2861 19.9007Z" fill="white"/>
<path d="M62.7842 23.8123V18.1465H66.4002V18.4846H63.1704V20.7352H65.7773V21.066H63.1704V23.4732H66.4002V23.8123H62.7842Z" fill="white"/>
<path d="M68.3291 23.8123V18.1465H68.463L72.378 22.9069V18.1465H72.7715V23.8123H72.6303L68.7153 19.0592V23.8123H68.3291Z" fill="white"/>
<path d="M74.5371 18.4846V18.1465H78.9079V18.4846H76.9156V23.8123H76.5294V18.4846H74.5371Z" fill="white"/>
<path d="M81.0737 18.1465H80.6875V23.8113H81.0737V18.1465Z" fill="white"/>
<path d="M82.7197 23.8123L85.1927 18.1475H85.3505L87.7996 23.8123H87.3822L86.752 22.325H83.759L83.1215 23.8123H82.7197ZM85.2643 18.8465L83.9022 21.9942H86.6119L85.2643 18.8465Z" fill="white"/>
<path d="M89.4385 23.8123V18.1465H89.8236V23.4732H92.6516V23.8123H89.4385Z" fill="white"/>
<path d="M45.8221 16.5244H45.6643L42.4844 23.8082H42.8851L45.7349 17.2245L48.5629 23.8123H48.9803L45.8221 16.5244Z" fill="white"/>
<path d="M32.621 22.3378C32.621 22.5504 32.5805 22.7496 32.4975 22.9321C32.4155 23.1157 32.3033 23.2754 32.1611 23.4123C32.0189 23.5492 31.8517 23.655 31.6607 23.7317C31.4686 23.8085 31.2662 23.8468 31.0534 23.8468H28.3281V18.0244H31.0451C31.2475 18.0244 31.4313 18.068 31.5953 18.1551C31.7593 18.2432 31.8995 18.3563 32.0137 18.4953C32.1289 18.6342 32.2172 18.7929 32.2805 18.9713C32.3438 19.1487 32.375 19.3281 32.375 19.5085C32.375 19.8041 32.3013 20.0748 32.1538 20.3206C32.0064 20.5664 31.8009 20.7469 31.5382 20.862C31.8725 20.9605 32.1362 21.1451 32.3303 21.4158C32.5245 21.6855 32.621 21.9925 32.621 22.3378ZM28.7465 18.4009V20.7303H30.881C31.0399 20.7303 31.1852 20.6971 31.316 20.6318C31.4479 20.5664 31.561 20.4803 31.6566 20.3735C31.7521 20.2667 31.8279 20.1433 31.8829 20.0001C31.9379 19.8581 31.9649 19.7139 31.9649 19.5656C31.9649 19.4069 31.9389 19.2586 31.887 19.1186C31.8351 18.9796 31.7635 18.8562 31.6732 18.7494C31.5828 18.6425 31.4749 18.5575 31.3492 18.4953C31.2236 18.432 31.0835 18.4009 30.9309 18.4009H28.7465V18.4009ZM32.2026 22.2797C32.2026 22.1263 32.1746 21.9779 32.1206 21.8327C32.0656 21.6886 31.9898 21.5589 31.8912 21.4469C31.7926 21.3349 31.6763 21.2457 31.5424 21.1804C31.4084 21.1151 31.2641 21.0819 31.1115 21.0819H28.7465V23.4683H31.0534C31.2174 23.4683 31.37 23.4351 31.5091 23.3698C31.6482 23.3044 31.7687 23.2152 31.8704 23.1032C31.9711 22.9912 32.0521 22.8647 32.1123 22.7216C32.1725 22.5805 32.2026 22.4332 32.2026 22.2797Z" fill="white"/>
<path d="M34.0077 18.0234L36.0436 21.2468L38.0878 18.0234H38.556L36.2574 21.6482V23.8459H35.8391V21.6326L33.5488 18.0234H34.0077Z" fill="white"/>
<path d="M6.24306 0.137695C3.85088 0.137695 1.81071 1.64212 1.01546 3.75551C1.21974 3.23134 1.5345 2.70074 1.95717 2.27678C3.5965 0.637458 6.25333 0.637458 7.89266 2.27678C8.59412 2.97825 9.00781 3.87628 9.03479 4.78973C9.03479 5.5156 8.76371 6.17467 8.3102 6.67058L8.24725 6.73353L6.24306 8.73772L1.58589 13.3949C0.618479 14.4908 0.0390625 15.9348 0.0390625 17.5086C0.0390625 20.8656 2.70618 23.5983 6.0375 23.7075C5.03283 23.6587 4.05001 23.2437 3.27531 22.4831C1.89679 21.1303 1.40859 18.3077 3.20722 16.617L10.1769 9.682C10.2 9.65888 10.2245 9.63704 10.2463 9.61391C10.3915 9.46488 10.5277 9.30815 10.6561 9.1437C11.3897 8.19813 11.8265 7.01104 11.8265 5.72245C11.8265 2.63779 9.32642 0.137695 6.24306 0.137695Z" fill="white"/>
<path opacity="0.4" d="M2.5088 19.7643C2.64498 20.0957 2.84797 20.4053 3.11648 20.6751C4.20722 21.7659 5.95061 21.7261 7.04135 20.6353L14.2166 13.4845C15.2174 12.5325 16.542 11.9248 18.0323 11.9248C18.7826 11.9248 19.4969 12.0725 20.1508 12.3411C20.6184 12.5453 21.0848 12.8652 21.4677 13.2481C23.107 14.8874 23.107 17.5442 21.4677 19.1836C21.0668 19.5844 20.666 19.8619 20.1726 20.0662C21.1349 19.6255 21.7953 18.635 21.7953 17.5083C21.7953 15.9666 20.5452 14.7165 19.0035 14.7165C18.3188 14.7165 17.6687 14.9439 17.1831 15.3538L10.672 21.8558C9.54659 23.0018 7.97921 23.7123 6.2461 23.7123C5.17206 23.7123 4.09802 23.3024 3.27836 22.4828C1.74823 20.9526 1.6416 18.3048 2.94047 16.898C2.94047 16.898 2.98801 16.8389 2.94047 16.898C2.2981 17.7035 2.12209 18.7981 2.5088 19.7643Z" fill="white"/>
<path opacity="0.4" d="M8.87317 3.86112C8.48903 2.7768 7.45867 1.99953 6.24331 1.99953C4.70163 1.99953 3.45158 3.24958 3.45158 4.79255C3.45158 5.56853 3.76891 6.27 4.28024 6.77618L4.62711 7.12178L5.57654 8.07248L6.2446 8.74055V8.74183L3.80745 11.1751L2.46747 9.83257C1.35746 8.81249 0.661133 7.34789 0.661133 5.72141C0.661133 5.01096 0.794745 4.33261 1.03628 3.70823C1.24183 3.19948 1.5476 2.68944 1.95872 2.27832C3.59804 0.638997 6.25488 0.638997 7.8942 2.27832C8.35414 2.73826 8.68817 3.28298 8.87317 3.86112Z" fill="white"/>
<path d="M20.0774 12.3121C20.6042 12.5652 21.0487 12.8311 21.4662 13.2487C23.1055 14.888 23.1055 17.5448 21.4662 19.1842C21.0821 19.5683 20.6414 19.8625 20.1712 20.0668C19.9271 20.176 19.3721 20.3006 19.0021 20.3006C18.2698 20.3006 17.6518 20.0771 17.1097 19.5619L8.67794 11.1738L6.23438 13.6046L14.2704 21.6406C15.3008 22.5412 16.5855 23.0923 18.0308 23.0923C21.1142 23.0923 23.6143 20.5922 23.6143 17.5089C23.6143 15.136 22.1651 13.1215 20.0774 12.3121Z" fill="url(#paint0_linear)"/>
</g>
<defs>
<linearGradient id="paint0_linear" x1="6.23659" y1="17.1377" x2="23.6155" y2="17.1377" gradientUnits="userSpaceOnUse">
<stop stop-color="white" stop-opacity="0.5"/>
<stop offset="0.3" stop-color="white"/>
</linearGradient>
<clipPath id="clip0">
<rect width="99.9344" height="24" fill="white"/>
</clipPath>
</defs>
</svg>
