<svg viewBox="0 0 142 32" fill="none" xmlns="http://www.w3.org/2000/svg">
<path d="M137.915 0H137.749L134.453 7.54131H134.862L137.826 0.726608L140.769 7.54131H141.2L137.915 0Z" fill="#91BE23"/>
<path d="M48.1262 18.6543L55.1678 6.40002H52.0679L46.7868 15.5886L41.4999 6.40002H38.4L45.4359 18.6344V25.4455H48.1262V18.6543Z" fill="#303135"/>
<path d="M61.0945 6.40002H58.407V25.4484H61.0945V6.40002Z" fill="#303135"/>
<path d="M75.0474 20.9351L69.6212 11.3996V25.4455H66.9308V6.40002H69.8658L75.0474 15.5005L80.229 6.40002H83.1952V25.4455H80.5077V11.3455L75.0474 20.9351Z" fill="#303135"/>
<path d="M91.7717 6.40002H89.0842V25.4484H91.7717V6.40002Z" fill="#303135"/>
<path d="M110.346 25.4484H113.241L105.599 6.40002H102.698L95.0566 25.4484H97.9517L100.136 20.0052H108.159L110.346 25.4484ZM101.219 17.3177L104.151 10.0061L107.084 17.3177H101.219Z" fill="#303135"/>
<path d="M131.072 6.40002H128.385V20.5313L120.032 6.40002H117.128V25.4455H119.816V11.3143L128.168 25.4455H131.072V6.40002Z" fill="#303135"/>
<path d="M8.42114 0C5.17406 0 2.4048 2.04207 1.32534 4.91074C1.60262 4.19924 2.02986 3.47902 2.6036 2.90354C4.82877 0.678365 8.4351 0.678365 10.6603 2.90354C11.6124 3.8557 12.174 5.07466 12.2106 6.31455C12.2106 7.29984 11.8426 8.19444 11.227 8.86758L11.1416 8.95303L8.42114 11.6735L2.09962 17.995C0.786485 19.4825 0 21.4426 0 23.5789C0 28.1356 3.62027 31.8448 8.14212 31.993C6.77842 31.9268 5.44436 31.3635 4.39281 30.3311C2.52164 28.4948 1.85896 24.6635 4.30038 22.3686L13.7609 12.9552C13.7923 12.9238 13.8254 12.8942 13.855 12.8628C14.0521 12.6605 14.2369 12.4477 14.4113 12.2245C15.4071 10.941 16 9.3297 16 7.5806C16 3.39357 12.6064 0 8.42114 0Z" fill="#338FFF"/>
<path d="M3.35171 26.6411C3.53656 27.091 3.81209 27.5113 4.17656 27.8775C5.6571 29.358 8.02354 29.304 9.50408 27.8234L19.2436 18.1171C20.6021 16.8249 22.4 16 24.4229 16C25.4413 16 26.4109 16.2005 27.2985 16.565C27.9333 16.8423 28.5663 17.2765 29.086 17.7962C31.3112 20.0214 31.3112 23.6277 29.086 25.8529C28.5419 26.3969 27.9978 26.7736 27.3282 27.0509C28.6343 26.4528 29.5307 25.1082 29.5307 23.5789C29.5307 21.4862 27.8339 19.7894 25.7412 19.7894C24.8118 19.7894 23.9294 20.0981 23.2702 20.6544L14.4323 29.4801C12.9046 31.0356 10.7771 32 8.42463 32C6.96675 32 5.50888 31.4437 4.39629 30.3311C2.31934 28.2542 2.1746 24.6601 3.93765 22.7505C3.93765 22.7505 4.00217 22.6703 3.93765 22.7505C3.06572 23.8439 2.8268 25.3297 3.35171 26.6411Z" fill="#0455C6"/>
<path d="M11.9909 5.05372C11.4694 3.58189 10.0709 2.52685 8.42117 2.52685C6.32852 2.52685 4.63174 4.22364 4.63174 6.31802C4.63174 7.37132 5.06247 8.32347 5.75653 9.01056L6.22738 9.47966L7.5161 10.7701L8.42291 11.6769V11.6787L5.11479 14.9816L3.29593 13.1592C1.78923 11.7746 0.844055 9.78658 0.844055 7.57884C0.844055 6.61448 1.02542 5.69372 1.35326 4.8462C1.63228 4.15563 2.04732 3.46331 2.60536 2.90527C4.83054 0.680095 8.43686 0.680095 10.662 2.90527C11.2863 3.52958 11.7397 4.26898 11.9909 5.05372Z" fill="#0455C6"/>
<path d="M27.1991 16.5249C27.9141 16.8685 28.5175 17.2295 29.0842 17.7962C31.3094 20.0214 31.3094 23.6277 29.0842 25.8529C28.5628 26.3743 27.9647 26.7736 27.3264 27.0509C26.9951 27.1992 26.2417 27.3683 25.7395 27.3683C24.7455 27.3683 23.9067 27.0649 23.1708 26.3656L11.7258 14.9799L8.40894 18.2793L19.3168 29.1872C20.7154 30.4096 22.4593 31.1577 24.4211 31.1577C28.6064 31.1577 32 27.7642 32 23.5789C32 20.358 30.0329 17.6236 27.1991 16.5249Z" fill="url(#paint0_linear)"/>
<defs>
<linearGradient id="paint0_linear" x1="13.7255" y1="12.8702" x2="29.7859" y2="28.9315" gradientUnits="userSpaceOnUse">
<stop stop-color="#0455C6"/>
<stop offset="0.3" stop-color="#338FFF"/>
</linearGradient>
</defs>
</svg>
