<svg width="428" height="120" viewBox="0 0 428 120" fill="none" xmlns="http://www.w3.org/2000/svg">
<path d="M59.0345 119.035C91.6383 119.035 118.069 92.6039 118.069 60.0001C118.069 27.3962 91.6383 0.965576 59.0345 0.965576C26.4306 0.965576 0 27.3962 0 60.0001C0 92.6039 26.4306 119.035 59.0345 119.035Z" fill="#237AE0"/>
<path d="M18.5149 30.6605V30.108C18.5149 28.2773 19.9087 26.7932 21.6282 26.7932C23.3476 26.7932 24.7416 28.2773 24.7416 30.108V30.6605H37.4729C39.1926 30.6605 40.5862 32.1445 40.5862 33.9753C40.5862 35.8059 39.1926 37.29 37.4729 37.29H24.7416V45.6164C24.7416 47.4471 23.3476 48.9311 21.6282 48.9311C19.9087 48.9311 18.5149 47.4471 18.5149 45.6164V37.29L6.80304 37.29C5.08366 37.29 3.68967 35.8059 3.68967 33.9752C3.68967 32.1445 5.08366 30.6604 6.80304 30.6604L18.5149 30.6605Z" fill="white"/>
<path d="M93.3272 30.6605V30.108C93.3272 28.2773 94.7211 26.7932 96.4408 26.7932C98.1601 26.7932 99.554 28.2773 99.554 30.108V30.6605H111.266C112.985 30.6605 114.379 32.1445 114.379 33.9753C114.379 35.8059 112.985 37.29 111.266 37.29H99.554V45.6164C99.554 47.4471 98.1601 48.9311 96.4408 48.9311C94.7211 48.9311 93.3272 47.4471 93.3272 45.6164V37.29H80.596C78.8763 37.29 77.4828 35.8059 77.4828 33.9753C77.4828 32.1445 78.8763 30.6605 80.596 30.6605H93.3272Z" fill="white"/>
<path d="M19.1353 50.9832C19.1353 52.6477 20.5456 53.997 22.2854 53.997H94.2174C95.957 53.997 97.3672 52.6477 97.3672 50.9832C97.3672 49.3188 95.957 47.9695 94.2174 47.9695H22.2854C20.5456 47.9695 19.1353 49.3188 19.1353 50.9832Z" fill="white"/>
<path d="M51.6501 66.2423C51.7418 67.7386 50.5718 69.024 49.0371 69.1131C46.4962 69.2611 44.6768 69.8046 43.409 70.5721C42.191 71.3097 41.345 72.3339 40.8366 73.7549C39.6582 77.0488 38.3297 81.7109 36.8547 87.7786H38.2078C39.7455 87.7786 40.9918 88.9937 40.9918 90.4926C40.9918 91.9919 39.7455 93.2069 38.2078 93.2069H28.6114C27.0738 93.2069 25.8276 91.9919 25.8276 90.4926C25.8276 88.9937 27.0738 87.7786 28.6114 87.7786H31.1356C32.7483 81.0295 34.2283 75.7437 35.5798 71.9669C36.4933 69.414 38.1356 67.3755 40.4716 65.9607C42.7582 64.576 45.5593 63.8776 48.7053 63.6946C50.24 63.6052 51.5585 64.746 51.6501 66.2423Z" fill="white"/>
<path d="M69.0317 69.1131C67.4971 69.024 66.3272 67.7386 66.4188 66.2423C66.5105 64.746 67.8289 63.6052 69.3635 63.6946C72.5093 63.8776 75.3102 64.576 77.5967 65.9607C79.9325 67.3755 81.5746 69.414 82.488 71.9669C83.8396 75.7437 85.3195 81.0295 86.932 87.7786H89.4576C90.9952 87.7786 92.2414 88.9937 92.2414 90.4926C92.2414 91.9919 90.9952 93.2069 89.4576 93.2069H79.8617C78.3244 93.2069 77.0782 91.9919 77.0782 90.4926C77.0782 88.9937 78.3244 87.7786 79.8617 87.7786H81.2133C79.7381 81.7109 78.41 77.0488 77.2313 73.7549C76.7233 72.3339 75.8774 71.3097 74.6594 70.5721C73.3918 69.8046 71.5724 69.2611 69.0317 69.1131Z" fill="white"/>
<path d="M76.7979 59.9931V65.6858C76.7979 72.7343 70.9737 78.4483 63.7896 78.4483H54.8099C47.6255 78.4483 41.8014 72.7343 41.8014 65.6858V60H41.6027C37.3197 60 33.8476 56.5936 33.8476 52.3916V51.7224C33.8476 47.5204 37.3197 44.114 41.6027 44.114H76.4665C80.7495 44.114 84.2215 47.5204 84.2215 51.7224V52.3916C84.2215 56.4846 80.9271 59.8228 76.7979 59.9931ZM22.0133 41.5518H22.8811C26.8878 41.5518 30.1359 44.7384 30.1359 48.6693V55.9572C30.1359 59.8881 26.8878 63.0747 22.8811 63.0747H22.0133C18.0067 63.0747 14.7586 59.8881 14.7586 55.9572V48.6693C14.7586 44.7384 18.0067 41.5518 22.0133 41.5518ZM95.1879 41.5518H96.0557C100.063 41.5518 103.31 44.7384 103.31 48.6693V55.9572C103.31 59.8881 100.063 63.0747 96.0557 63.0747H95.1879C91.1814 63.0747 87.9333 59.8881 87.9333 55.9572V48.6693C87.9333 44.7384 91.1814 41.5518 95.1879 41.5518Z" fill="#237AE0"/>
<path fill-rule="evenodd" clip-rule="evenodd" d="M71.3147 54.6713L76.5743 54.4542C77.9244 54.3985 78.7383 53.3522 78.7383 52.3916V51.7224C78.7383 50.7378 77.8777 49.6575 76.4665 49.6575H41.6027C40.1915 49.6575 39.3308 50.7378 39.3308 51.7224V52.3916C39.3308 53.3762 40.1915 54.4565 41.6027 54.4565H47.2846V65.6858C47.2846 69.5169 50.4975 72.9047 54.8099 72.9047H63.7896C68.102 72.9047 71.3147 69.5169 71.3147 65.6858V54.6713ZM82.5569 47.0119C81.1368 45.2469 78.9364 44.114 76.4665 44.114H41.6027C39.1327 44.114 36.9325 45.2469 35.5123 47.0119C35.1062 47.5165 34.7639 48.0729 34.4973 48.6693C34.0795 49.6038 33.8476 50.6365 33.8476 51.7224V52.3916C33.8476 53.68 34.1741 54.8936 34.7502 55.9572C34.9822 56.3855 35.2547 56.7894 35.5628 57.1642C36.9843 58.8936 39.1618 60 41.6027 60H41.8014V65.6858C41.8014 72.7343 47.6255 78.4483 54.8099 78.4483H63.7896C70.9737 78.4483 76.7979 72.7343 76.7979 65.6858V59.9931C79.1041 59.898 81.1497 58.8149 82.5063 57.1642C82.8142 56.7894 83.0868 56.3855 83.3189 55.9572C83.8951 54.8936 84.2215 53.68 84.2215 52.3916V51.7224C84.2215 50.6365 83.9897 49.6038 83.5719 48.6693C83.3054 48.0729 82.9631 47.5165 82.5569 47.0119ZM88.4311 46.073C88.1096 46.8774 87.9333 47.7531 87.9333 48.6693V55.9572C87.9333 56.7638 88.0699 57.539 88.3219 58.2618C89.2982 61.0616 92.0033 63.0747 95.1879 63.0747H96.0557C100.063 63.0747 103.31 59.8881 103.31 55.9572V48.6693C103.31 44.7384 100.063 41.5518 96.0557 41.5518H95.1879C92.1151 41.5518 89.4884 43.4261 88.4311 46.073ZM29.7469 58.2626C29.9991 57.5395 30.1359 56.7641 30.1359 55.9572V48.6693C30.1359 47.7531 29.9595 46.8774 29.6381 46.073C28.5807 43.4261 25.954 41.5518 22.8811 41.5518H22.0133C18.0067 41.5518 14.7586 44.7384 14.7586 48.6693V55.9572C14.7586 59.8881 18.0067 63.0747 22.0133 63.0747H22.8811C26.0654 63.0747 28.7705 61.062 29.7469 58.2626ZM22.8811 47.0953H22.0133C20.8785 47.0953 20.2418 47.9558 20.2418 48.6693V55.9572C20.2418 56.6707 20.8785 57.5312 22.0133 57.5312H22.8811C24.016 57.5312 24.6527 56.6707 24.6527 55.9572V48.6693C24.6527 47.9558 24.016 47.0953 22.8811 47.0953ZM96.0557 47.0953H95.1879C94.0532 47.0953 93.4165 47.9558 93.4165 48.6693V55.9572C93.4165 56.6707 94.0532 57.5312 95.1879 57.5312H96.0557C97.1905 57.5312 97.8275 56.6707 97.8275 55.9572V48.6693C97.8275 47.9558 97.1905 47.0953 96.0557 47.0953Z" fill="white"/>
<path d="M63.6956 59.9997C63.6956 62.5737 61.609 64.6603 59.035 64.6603C56.461 64.6603 54.3744 62.5737 54.3744 59.9997C54.3744 57.4257 56.461 55.3391 59.035 55.3391C61.609 55.3391 63.6956 57.4257 63.6956 59.9997Z" fill="white"/>
<path d="M174.81 58.4241L188.172 30.4828H198.934L179.691 67.2642V89.5173H169.929V67.2642L151.276 30.4828H162.076L174.81 58.4241ZM213.552 89.5173H204.212V45.2414H213.552V89.5173ZM203.636 35.4792C203.636 34.0443 204.084 32.8529 204.981 31.9048C205.903 30.9568 207.21 30.4828 208.901 30.4828C210.592 30.4828 211.899 30.9568 212.821 31.9048C213.744 32.8529 214.205 34.0443 214.205 35.4792C214.205 36.8884 213.744 38.0671 212.821 39.0151C211.899 39.9375 210.592 40.3987 208.901 40.3987C207.21 40.3987 205.903 39.9375 204.981 39.0151C204.084 38.0671 203.636 36.8884 203.636 35.4792ZM225.069 89.5173V30.4828H241.596C246.541 30.4828 250.922 31.5846 254.74 33.7881C258.583 35.9917 261.556 39.1176 263.657 43.166C265.757 47.2145 266.808 51.852 266.808 57.0791V62.9593C266.808 68.2632 265.745 72.9266 263.618 76.9495C261.517 80.972 258.506 84.0723 254.586 86.2504C250.692 88.4284 246.22 89.5173 241.173 89.5173H225.069ZM234.793 38.3233V81.7536H241.134C246.233 81.7536 250.141 80.1649 252.857 76.9879C255.598 73.7849 256.995 69.1986 257.046 63.2286V57.0408C257.046 50.9681 255.727 46.3304 253.087 43.1275C250.448 39.9247 246.618 38.3233 241.596 38.3233H234.793ZM296.953 54.8115C295.723 54.6065 294.455 54.5039 293.148 54.5039C288.869 54.5039 285.589 54.8755 284.103 58.1552L284.078 89.5173H275.161V45.5104H284.078L284.308 50.9297C286.563 47.3168 289.689 45.5104 293.686 45.5104C295.019 45.5104 296.121 45.6898 296.992 46.0485L296.953 54.8115ZM300.784 66.8029C300.784 62.7288 301.591 59.0648 303.205 55.8106C304.819 52.531 307.087 50.02 310.008 48.2776C312.929 46.5097 316.285 45.6257 320.077 45.6257C325.689 45.6257 330.237 47.4321 333.722 51.0449C337.232 54.6575 339.128 59.4491 339.41 65.4192L339.448 68.3787C339.448 72.4783 338.654 76.142 337.065 79.3706C335.502 82.5991 333.248 85.0972 330.301 86.8653C327.38 88.6331 323.998 89.5173 320.154 89.5173C314.287 89.5173 309.585 87.5698 306.049 83.6752C302.539 79.7549 300.784 74.5409 300.784 68.0327V66.8029ZM310.123 68.3787C310.123 72.6577 311.007 76.0141 312.775 78.4483C314.543 80.8569 317.003 82.0609 320.154 82.0609C323.306 82.0609 325.753 80.831 327.495 78.3712C329.263 75.9115 330.147 72.3117 330.147 67.5715C330.147 63.3693 329.238 59.2697 327.418 56.81C325.625 54.3502 323.178 53.1203 320.077 53.1203C317.028 53.1203 314.607 54.3374 312.814 56.7716C311.02 59.1802 310.123 63.5614 310.123 68.3787ZM355.629 45.5104L355.898 51.0835C358.973 47.3681 363.969 45.2414 368.966 45.2414C377.626 45.2414 382.033 50.1995 382.187 60.1153L381.994 89.5173H372.655L372.847 60.6535C372.847 58.0144 372.271 56.0669 371.118 54.8114C369.99 53.5304 367.172 53.1589 364.584 53.1589C360.817 53.1589 358.012 54.8627 356.167 58.2706V89.5173H346.828V45.5104H355.629ZM411.319 89.2482C405.401 89.2482 400.597 87.3906 396.907 83.6754C393.243 79.9342 391.411 74.9635 391.411 67.879V66.7259C391.411 62.5751 392.205 58.8727 393.794 55.6186C395.408 52.3389 397.663 49.7896 400.558 47.9702C403.453 46.151 406.682 45.2414 410.243 45.2414C415.906 45.2414 420.275 47.0478 423.349 50.6606C426.45 54.2732 428 59.385 428 65.9958V69.7622H400.827C401.109 74.0797 402.249 76.7956 404.248 78.7942C406.272 80.7925 408.809 81.7918 411.858 81.7918C416.137 81.7918 419.621 80.0625 422.312 76.6034L427.347 81.4078C425.681 83.8931 423.452 85.8275 420.659 87.2112C417.892 88.569 414.779 89.2482 411.319 89.2482ZM410.205 52.736C407.643 52.736 405.567 53.6327 403.979 55.4264C402.416 57.22 401.416 59.7182 400.981 62.9211H418.776V62.2291C418.571 59.1032 417.738 56.7461 416.278 55.1574C414.817 53.5432 412.793 52.736 410.205 52.736Z" fill="#102B57"/>
</svg>
