<svg width="300" height="300" viewBox="0 0 300 300" fill="none" xmlns="http://www.w3.org/2000/svg">
<path d="M150 300C232.843 300 300 232.843 300 150C300 67.1573 232.843 0 150 0C67.1573 0 0 67.1573 0 150C0 232.843 67.1573 300 150 300Z" fill="#237AE0"/>
<path d="M47.0442 75.4512V74.0475C47.0442 69.3959 50.5857 65.625 54.9549 65.625C59.3237 65.625 62.8657 69.3959 62.8657 74.0475V75.4512H95.2145C99.5841 75.4512 103.125 79.2221 103.125 83.8738C103.125 88.5253 99.5841 92.2962 95.2145 92.2962H62.8657V113.452C62.8657 118.104 59.3237 121.875 54.9549 121.875C50.5857 121.875 47.0442 118.104 47.0442 113.452V92.2962L17.2857 92.2961C12.917 92.2961 9.375 88.5252 9.375 83.8736C9.375 79.222 12.917 75.4512 17.2857 75.4512L47.0442 75.4512Z" fill="white"/>
<path d="M237.134 75.4512V74.0475C237.134 69.3959 240.676 65.625 245.045 65.625C249.414 65.625 252.956 69.3959 252.956 74.0475V75.4512H282.715C287.083 75.4512 290.625 79.2221 290.625 83.8738C290.625 88.5253 287.083 92.2962 282.715 92.2962H252.956V113.452C252.956 118.104 249.414 121.875 245.045 121.875C240.676 121.875 237.134 118.104 237.134 113.452V92.2962H204.785C200.416 92.2962 196.875 88.5253 196.875 83.8738C196.875 79.2221 200.416 75.4512 204.785 75.4512H237.134Z" fill="white"/>
<path d="M48.6206 127.089C48.6206 131.318 52.2041 134.747 56.6247 134.747H239.396C243.816 134.747 247.399 131.318 247.399 127.089C247.399 122.86 243.816 119.432 239.396 119.432H56.6247C52.2041 119.432 48.6206 122.86 48.6206 127.089Z" fill="white"/>
<path d="M131.237 165.861C131.47 169.663 128.497 172.929 124.598 173.155C118.142 173.531 113.519 174.912 110.297 176.862C107.203 178.737 105.053 181.339 103.761 184.95C100.767 193.319 97.3914 205.165 93.6438 220.582H97.0817C100.989 220.582 104.155 223.67 104.155 227.478C104.155 231.288 100.989 234.375 97.0817 234.375H72.6983C68.7916 234.375 65.625 231.288 65.625 227.478C65.625 223.67 68.7916 220.582 72.6983 220.582H79.1119C83.2096 203.434 86.9703 190.003 90.4043 180.406C92.7253 173.92 96.8982 168.74 102.834 165.145C108.644 161.627 115.761 159.853 123.755 159.387C127.654 159.16 131.004 162.059 131.237 165.861Z" fill="white"/>
<path d="M175.402 173.155C171.503 172.929 168.53 169.663 168.763 165.861C168.996 162.059 172.346 159.16 176.245 159.387C184.238 159.853 191.355 161.627 197.165 165.145C203.1 168.74 207.272 173.92 209.593 180.406C213.027 190.003 216.787 203.434 220.885 220.582H227.302C231.209 220.582 234.375 223.67 234.375 227.478C234.375 231.288 231.209 234.375 227.302 234.375H202.92C199.013 234.375 195.847 231.288 195.847 227.478C195.847 223.67 199.013 220.582 202.92 220.582H206.354C202.606 205.165 199.231 193.319 196.236 184.95C194.945 181.339 192.796 178.737 189.701 176.862C186.48 174.912 181.857 173.531 175.402 173.155Z" fill="white"/>
<path d="M195.135 149.982V164.447C195.135 182.356 180.336 196.875 162.082 196.875H139.266C121.011 196.875 106.213 182.356 106.213 164.447V150H105.708C94.8252 150 86.0031 141.345 86.0031 130.668V128.967C86.0031 118.291 94.8252 109.635 105.708 109.635H194.293C205.175 109.635 213.997 118.291 213.997 128.967V130.668C213.997 141.068 205.627 149.55 195.135 149.982ZM55.9335 103.125H58.1385C68.319 103.125 76.5719 111.222 76.5719 121.21V139.728C76.5719 149.716 68.319 157.812 58.1385 157.812H55.9335C45.7529 157.812 37.5 149.716 37.5 139.728V121.21C37.5 111.222 45.7529 103.125 55.9335 103.125ZM241.862 103.125H244.067C254.248 103.125 262.5 111.222 262.5 121.21V139.728C262.5 149.716 254.248 157.812 244.067 157.812H241.862C231.682 157.812 223.429 149.716 223.429 139.728V121.21C223.429 111.222 231.682 103.125 241.862 103.125Z" fill="#237AE0"/>
<path fill-rule="evenodd" clip-rule="evenodd" d="M181.203 136.46L194.567 135.909C197.997 135.767 200.065 133.109 200.065 130.668V128.967C200.065 126.466 197.879 123.721 194.293 123.721H105.708C102.122 123.721 99.9352 126.466 99.9352 128.967V130.668C99.9352 133.17 102.122 135.914 105.708 135.914H120.145V164.447C120.145 174.181 128.308 182.789 139.266 182.789H162.082C173.04 182.789 181.203 174.181 181.203 164.447V136.46ZM209.768 116.999C206.159 112.514 200.569 109.635 194.293 109.635H105.708C99.4319 109.635 93.8413 112.514 90.2328 116.999C89.201 118.281 88.3312 119.694 87.6538 121.21C86.5922 123.584 86.0031 126.208 86.0031 128.967V130.668C86.0031 133.942 86.8325 137.025 88.2964 139.728C88.8859 140.816 89.5784 141.842 90.361 142.794C93.973 147.189 99.5058 150 105.708 150H106.213V164.447C106.213 182.356 121.011 196.875 139.266 196.875H162.082C180.336 196.875 195.135 182.356 195.135 164.447V149.982C200.995 149.741 206.192 146.989 209.639 142.794C210.422 141.842 211.114 140.816 211.704 139.728C213.168 137.025 213.997 133.942 213.997 130.668V128.967C213.997 126.208 213.408 123.584 212.347 121.21C211.67 119.694 210.8 118.281 209.768 116.999ZM224.693 114.613C223.877 116.657 223.429 118.882 223.429 121.21V139.728C223.429 141.777 223.776 143.747 224.416 145.583C226.897 152.697 233.77 157.812 241.862 157.812H244.067C254.248 157.812 262.5 149.716 262.5 139.728V121.21C262.5 111.222 254.248 103.125 244.067 103.125H241.862C234.054 103.125 227.38 107.887 224.693 114.613ZM75.5835 145.585C76.2243 143.748 76.5719 141.778 76.5719 139.728V121.21C76.5719 118.882 76.1237 116.657 75.3071 114.613C72.6203 107.887 65.9462 103.125 58.1385 103.125H55.9335C45.7529 103.125 37.5 111.222 37.5 121.21V139.728C37.5 149.716 45.7529 157.812 55.9335 157.812H58.1385C66.2294 157.812 73.1027 152.698 75.5835 145.585ZM58.1385 117.21H55.9335C53.05 117.21 51.4321 119.397 51.4321 121.21V139.728C51.4321 141.54 53.05 143.727 55.9335 143.727H58.1385C61.022 143.727 62.6398 141.54 62.6398 139.728V121.21C62.6398 119.397 61.022 117.21 58.1385 117.21ZM244.067 117.21H241.862C238.979 117.21 237.361 119.397 237.361 121.21V139.728C237.361 141.54 238.979 143.727 241.862 143.727H244.067C246.95 143.727 248.569 141.54 248.569 139.728V121.21C248.569 119.397 246.95 117.21 244.067 117.21Z" fill="white"/>
<path d="M161.843 149.999C161.843 156.54 156.542 161.841 150.001 161.841C143.461 161.841 138.159 156.54 138.159 149.999C138.159 143.459 143.461 138.157 150.001 138.157C156.542 138.157 161.843 143.459 161.843 149.999Z" fill="white"/>
</svg>
