<svg viewBox="0 0 48 40" fill="none" xmlns="http://www.w3.org/2000/svg">
<path d="M41.1132 0H40.7529L33.5947 16H34.4835L40.921 1.54161L47.3105 16H48.2474L41.1132 0Z" fill="#91BE23"/>
<path d="M11.1372 0C7.03565 0 3.53764 2.55259 2.17411 6.13842C2.52436 5.24905 3.06404 4.34877 3.78875 3.62943C6.5995 0.847956 11.1549 0.847956 13.9656 3.62943C15.1683 4.81962 15.8776 6.34332 15.9239 7.89319C15.9239 9.1248 15.4591 10.2431 14.6815 11.0845L14.5736 11.1913L11.1372 14.5918L3.15215 22.4937C1.49345 24.3531 0.5 26.8033 0.5 29.4736C0.5 35.1695 5.07298 39.806 10.7848 39.9913C9.06221 39.9085 7.37709 39.2044 6.04881 37.9139C3.68522 35.6185 2.84817 30.8294 5.93206 27.9608L17.8822 16.194C17.9218 16.1548 17.9637 16.1177 18.0011 16.0785C18.25 15.8256 18.4835 15.5597 18.7038 15.2807C19.9616 13.6763 20.7105 11.6621 20.7105 9.47575C20.7105 4.24196 16.4239 0 11.1372 0Z" fill="#338FFF"/>
<path d="M4.73373 33.3014C4.96722 33.8638 5.31526 34.3891 5.77564 34.8469C7.6458 36.6975 10.635 36.63 12.5051 34.7793L24.8077 22.6463C26.5236 21.0311 28.7947 20 31.3499 20C32.6364 20 33.8611 20.2507 34.9823 20.7063C35.7841 21.0529 36.5838 21.5956 37.2402 22.2452C40.0509 25.0267 40.0509 29.5346 37.2402 32.3161C36.5529 32.9962 35.8656 33.467 35.0198 33.8136C36.6697 33.0659 37.8019 31.3853 37.8019 29.4736C37.8019 26.8578 35.6586 24.7368 33.0152 24.7368C31.8412 24.7368 30.7266 25.1226 29.8939 25.818L18.7302 36.8501C16.8006 38.7946 14.1132 40 11.1416 40C9.30009 40 7.45857 39.3046 6.05319 37.9139C3.42968 35.3177 3.24685 30.8251 5.47386 28.4381C5.47386 28.4381 5.55536 28.3379 5.47386 28.4381C4.37247 29.8049 4.07069 31.6621 4.73373 33.3014Z" fill="#0455C6"/>
<path d="M15.6463 6.31718C14.9877 4.4774 13.2211 3.1586 11.1372 3.1586C8.49391 3.1586 6.3506 5.27958 6.3506 7.89756C6.3506 9.21418 6.89469 10.4044 7.7714 11.2632L8.36615 11.8496L9.99401 13.4627L11.1395 14.5962V14.5984L6.96077 18.727L4.66327 16.4491C2.76007 14.7183 1.56616 12.2333 1.56616 9.47358C1.56616 8.26813 1.79525 7.11718 2.20937 6.05778C2.56182 5.19456 3.08608 4.32917 3.79097 3.63162C6.60172 0.850149 11.1571 0.850149 13.9678 3.63162C14.7564 4.412 15.3291 5.33625 15.6463 6.31718Z" fill="#0455C6"/>
<path d="M34.8568 20.6561C35.7599 21.0856 36.5221 21.5368 37.238 22.2452C40.0488 25.0267 40.0488 29.5346 37.238 32.3161C36.5794 32.9678 35.8238 33.467 35.0176 33.8136C34.5991 33.9989 33.6475 34.2104 33.0131 34.2104C31.7575 34.2104 30.6979 33.8311 29.7684 32.9569L15.3115 18.7248L11.1218 22.849L24.9002 36.4839C26.6669 38.012 28.8696 38.9471 31.3478 38.9471C36.6344 38.9471 40.9211 34.7052 40.9211 29.4736C40.9211 25.4474 38.4363 22.0294 34.8568 20.6561Z" fill="url(#paint0_linear)"/>
<defs>
<linearGradient id="paint0_linear" x1="17.8375" y1="16.0877" x2="37.9118" y2="36.3745" gradientUnits="userSpaceOnUse">
<stop stop-color="#0455C6"/>
<stop offset="0.3" stop-color="#338FFF"/>
</linearGradient>
</defs>
</svg>
